<?xml version="1.0" encoding="utf-8"?>
<!-- Generator: Adobe Illustrator 26.3.1, SVG Export Plug-In . SVG Version: 6.00 Build 0)  -->
<svg version="1.1" id="Layer_1" xmlns="http://www.w3.org/2000/svg" xmlns:xlink="http://www.w3.org/1999/xlink" x="0px" y="0px"
	 viewBox="0 0 689.2 554.2" style="enable-background:new 0 0 689.2 554.2;" xml:space="preserve">
<style type="text/css">
	.st0{fill:#FFB6B6;}
	.st1{fill:#2F2E41;}
	.st2{fill:#4A45D6;}
	.st3{fill:#D6C9FF;}
	.st4{fill:#FFFFFF;}
	.st5{fill:#FFB8B8;}
	.st6{fill:#E6E6E6;}
	.st7{fill:#3F3D56;}
	.st8{fill:#FFF03B;}
	.st9{fill:#3EE4FB;}
	.st10{opacity:0.2;enable-background:new    ;}
	.st11{fill:#CACACA;}
	.st12{fill:#FAFAFA;}
	.st13{fill:#DDDDDD;}
</style>
<polygon class="st0" points="479.9,539.4 467.1,539.4 461.1,490.2 479.9,490.2 "/>
<path class="st1" d="M479.5,535.3l-13.6-5.5l-0.4-0.2l-7.5,5.7c-8.8,0-16,7.2-16,16v0.5h41.1v-16.5H479.5z"/>
<polygon class="st0" points="595.2,522.8 583.7,528.5 556.4,487.2 573.2,478.8 "/>
<path class="st1" d="M596.2,517.7l-2.9,1.5l-0.3,0.2l-14.6,1.1l-0.4,0l-4.2,8.5c-7.9,3.9-11.1,13.5-7.2,21.5c0,0,0,0,0,0l0.2,0.5
	l36.8-18.3L596.2,517.7z"/>
<path class="st2" d="M471.2,275l70.3,2.5l0.5-0.7c0,0,6,14,6,26c0,4-2.8,30.1-1.4,35c0.2,0.6-1,2.1-0.6,5c0.3,1.9,1.7,0.4,2,3
	c0.2,1.8-2.3,2.9-2,5c0.3,2.3,3.7,9.9,4,12.5c3.3,27.6,7.7,67.6,7.7,67.6s17.6,47.1,21.3,47.9c6.2,1.3,10.5,12.6,7,15
	c-1.6,1.1-22.9,8.7-22.9,8.7c-1.2,0.2-4.8-1.6-2.5-6c0.4-0.8-2.1,1.2-2.6,0.3c-0.5-1,0.4-5.1-0.1-6.2c-4.7-10.1-11.8-24.2-18.6-31.4
	c-10-10.7-16.3-24.2-18.1-38.8l-15.5-86.1l-5.3,24.2l-4.4,4.4l1.2,10.1l-0.2,9.9l-11,41c0,0-1.6,76.6,1,79c1.4,1.3,7.5,17.5-4,19
	l-20.9-1.6c0,0-2.8-5.9-1.4-8.1s1.3-1.5-0.4-5s-1-9.3-1-9.3c-2.7-27.6-3.8-55.3-3.2-83c1-45.5,7.4-97.8,7.4-98.8
	c0.1-1.1-0.1-2.2-0.6-3.2v-2.9l2.7-10.2L471.2,275z"/>
<circle class="st3" cx="570.2" cy="255.8" r="27.8"/>
<path class="st4" d="M566.4,270.2c-1,0-1.9-0.5-2.5-1.2l-7.6-10.1c-1-1.4-0.8-3.3,0.6-4.3s3.3-0.8,4.3,0.6c0,0,0,0,0,0l5,6.6
	l12.7-19.1c0.9-1.4,2.9-1.8,4.3-0.9s1.8,2.9,0.9,4.3L569,268.9C568.5,269.7,567.5,270.2,566.4,270.2
	C566.5,270.2,566.5,270.2,566.4,270.2z"/>
<path class="st5" d="M584,285.1c1-4.3-1.6-8.6-5.9-9.6c-0.5-0.1-0.9-0.2-1.4-0.2l-14.2-48.5l-9.6,11.2l15.3,45.4c0,4.4,3.7,8,8.1,8
	C579.9,291.3,583.1,288.8,584,285.1z"/>
<path class="st6" d="M573.9,261.5l-1.8-6.8l2.1-4l-0.2-0.5l-0.6-1.8l-3.3-2.7l1.2-3.4l-4.2-11.9l-1-2.1l-24.1-48.4l-5.8-11.6
	l-1.3-2.1l-4.2-6.5l-5.7-8.9c-1.8-2.9-4.7-4.9-8.1-5.6c-0.5-0.1-1.1-0.2-1.6-0.2l-0.4,0c-1-0.1-1.9,0-2.9,0.2h0
	c-1.7,0.3-3.3,0.9-4.7,1.9c-1.1,0.7-2.1,1.6-3,2.7c-1.9,2.4-3,5.5-2.8,8.5l0.2,4.9l0.2,4.4l8.5,15.3l0.5,1l0,0l26,47.1l7.8,14.2
	l1.2,2.2l5.3,3.5l-1.4,3.5l0.4,5.5l4.5,3.4l6.5,6.6l0.3,0.5l2-1l0.2-0.1l0.5-0.1l6.2-1.9l3.8-1.1l0.1,0l1-0.3L573.9,261.5z"/>
<polygon class="st7" points="262.4,109.6 260.4,109.6 260.4,32.6 405,32.6 405,34.6 262.4,34.6 "/>
<circle class="st8" cx="427.2" cy="27.8" r="27.8"/>
<path class="st4" d="M423.4,42.2c-1,0-1.9-0.5-2.5-1.2l-7.6-10.1c-1-1.4-0.8-3.3,0.6-4.3c1.4-1,3.3-0.8,4.3,0.6c0,0,0,0,0,0l5,6.6
	L436,14.7c0.9-1.4,2.9-1.8,4.3-0.9s1.8,2.9,0.9,4.3c0,0,0,0,0,0L426,40.9C425.5,41.7,424.5,42.2,423.4,42.2
	C423.5,42.2,423.5,42.2,423.4,42.2z"/>
<polygon class="st7" points="164.4,296.7 162.4,296.7 162.4,373.7 307,373.7 307,371.7 164.4,371.7 "/>
<circle class="st9" cx="329.2" cy="373.8" r="27.8"/>
<path class="st4" d="M325.4,388.2c-1,0-1.9-0.5-2.5-1.2l-7.6-10.1c-1-1.4-0.7-3.3,0.6-4.3c1.4-1,3.3-0.7,4.3,0.6c0,0,0,0,0,0l5,6.6
	l12.7-19.1c0.9-1.4,2.9-1.8,4.3-0.9s1.8,2.9,0.9,4.3L328,386.9C327.5,387.7,326.5,388.2,325.4,388.2
	C325.5,388.2,325.5,388.2,325.4,388.2z"/>
<path class="st6" d="M549.1,299.5c0,2.1-0.3,4.2-1,6.2l-0.2,0c-17.8,3.1-33.6,3.6-40.9-7.3c-9.6-12.2-22.7-12-37.4-6.7l-1.7-1.9
	l-3-3.2l2.7-3.1l-2.7-5.9l2.3-7.3l2.9-0.5l-0.8-6.3l-1.2-3.7l3.6-3.9l3-9.8l-2.2-20.5c-3-28.1,2.8-56.5,16.6-81.2l8.3-7.5l3.5-3.1
	l4.6-8.6l4.9,0.6l13.2,1.5l0.5,1.1l3.2,7.8l17.1,18.4l-0.8,7.8l-0.3,3.4l-0.2,2.5l-1.2,11.8l-4.8,48.4l-0.4,2.6l-3.9,27.8
	c6.3,6.1,11.8,17.8,14.5,28.5c0.3,1.2-0.5,2.4-0.3,3.6c0.3,1.6,1.7,3.2,1.8,4.7C549,296.8,549.1,298.2,549.1,299.5z"/>
<circle class="st0" cx="515.2" cy="98.9" r="23"/>
<path class="st1" d="M542.9,92.7c-1.4-4.2-5.1-7.8-9.5-8.3c1-8.5-5.1-16.2-13.6-17.2c-3.2-0.4-6.4,0.2-9.2,1.7
	c-1.1-1.3-2.8-1.9-4.4-1.7c-1.6,0.3-3.2,0.9-4.5,2c-6.6,4.9-10.1,13-8.9,21.1c0-2,0.9,1.9,3.5,2.2c2.1,0.4,4.2,1.3,6,2.5
	c1.8,1.2,3.9,2.1,6,2.5c2.2,0.3,2.7,9,1.2,14.6c-0.3,1.1-0.4,2.5,0.5,3c1.2,0.6,2.4-0.9,3.8-1.1c1.3,0,2.3,1,2.4,2.2
	c0,1.2-0.6,2.4-1.6,3.1c-1,0.7-2.1,1.2-3.2,1.6l0.4,0.6c0.7,1.3,2.2,1.9,3.6,1.5c1.5,1.9,17.4-3.3,18.2-6.7c3.3-3,6.1-6.6,8.1-10.5
	C543.6,101.6,544.1,97,542.9,92.7z"/>
<path class="st6" d="M561.5,162.7c-0.3,2.7-2.8,4.7-5.5,5.2c-1.3,0.3-2.7,0.3-4.1,0.1c-1.3-0.2-2.6-0.5-3.9-0.9
	c-1.6-0.5-3.1-1-4.7-1.5c-4.4-1.6-8.7-3.6-12.7-6c-3.1-1.8-6-3.8-8.8-6c-1.4-1.1-2.8-2.3-4.2-3.6l1.7,0.8c-1.5-2-3-4.1-4.5-6.1
	c-1.5-2-2.9-3.9-4.4-5.9c-0.1-0.1-0.2-0.2-0.2-0.2v0c-0.7-0.9-1.3-1.8-2-2.7c-2-2.7-3.9-6.6-1.7-9c1-1,2.4-1.4,3.7-1.1
	c0.7,0.1,1.4,0.3,2,0.7c1.7,1.1,3.2,2.6,4.3,4.4c1.6-2.3,4.6-3.1,7.3-2.7c0.2,0,0.3,0,0.4,0c2.8,0.5,4.1-1,6.6,0.5
	c1.2,0.7,1.8,4.3,3,5c0.7,0.4,3.1,1,3.7,1.4c1.3,0.8,1,3.8,2.3,4.6c1,0.6,3.6-1,4.5-0.4c1,0.6,2.4,4.8,3.5,5.4c2,1.2,3.7-1,5.7,0.2
	c2.6,1.6,5.4,3.4,6.5,6.3c1,2.5-0.3,6-2.7,6.7C560,158.2,561.7,160.3,561.5,162.7z"/>
<path class="st10" d="M543.3,165.6l-0.2,2.5c-2.8-0.3-5.6-0.9-8.3-1.9c-3.5-1.2-6.6-3.5-8.7-6.5c-1.4-2-2.8-4.1-4.2-6
	c-2.4-3.3-4.7-6.3-6.6-8.8c-2.4-3-4.1-5.2-4.8-5.9c-0.1-0.1-0.2-0.2-0.2-0.2l0,0l0,0c11.9,15,23.1,23.7,33.4,23.5
	C543.7,162.2,544.9,166.2,543.3,165.6z"/>
<path class="st5" d="M434.6,45.2c-1.1,4.3,1.5,8.6,5.7,9.7c0.5,0.1,0.9,0.2,1.4,0.2l13.3,48.8l9.8-11l-14.4-45.7
	c0-4.4-3.5-8.1-7.9-8.1C438.8,39.1,435.5,41.6,434.6,45.2z"/>
<path class="st6" d="M512.7,169.9l-0.1-4.4l-8.4-15.9l-0.3-0.6l0,0l-6.4-12.2l-31-58.8l-3.3-1.2l0.2-4.8l-0.2-5.2l-4-2.7l-1.7-3.2
	l-2.4,0.7h0l-0.1,0l-10.6,3h0l-2.2,1.2l-2,6l-0.4,2.8l0.4,5.2l5,1l-1.7,5.3l5,15.2c6.3,26.6,14.9,49.6,29.7,62.7l1.2,2l9.7,15.8
	c2.7,4.4,7.8,6.8,12.9,6h0c1.7-0.3,3.3-0.9,4.8-1.8c1.3-0.8,2.5-1.9,3.5-3.2c1.7-2.3,2.6-5.1,2.6-8L512.7,169.9z"/>
<path class="st11" d="M688,553.9l-271.8,0.3c-0.7,0-1.2-0.5-1.2-1.2c0-0.7,0.5-1.2,1.2-1.2l271.8-0.3c0.7,0,1.2,0.5,1.2,1.2
	C689.2,553.4,688.6,553.9,688,553.9z"/>
<path class="st12" d="M83.6,153.7c0-15,5.7-29.5,16-40.4L64.3,64.5c-5.6-7.7-16.4-9.4-24.1-3.8c-0.7,0.5-1.3,1-1.9,1.6
	C13.7,86.2-0.1,119,0,153.3c0,6.4,0.5,12.8,1.4,19.1c0.8,5.1,3.7,9.5,8.1,12.2c4.3,2.7,9.6,3.3,14.4,1.7L85,166.5
	C84.1,162.3,83.6,158,83.6,153.7z"/>
<path class="st13" d="M86.9,173l-63.6,20.7c-9.1,2.9-14,12.7-11.1,21.7c0.3,0.8,0.6,1.5,0.9,2.3C31.5,255,66.9,281,108,287.3
	c5,0.8,10.1-0.7,13.9-4c3.8-3.3,6-8.1,6-13.1v-59.4C108.7,205.9,93.4,191.7,86.9,173z"/>
<path class="st2" d="M278.1,210.1c-2.2-5.2-6.5-9.1-11.8-10.8L197,176.8c-8.2,19.4-26.2,32.9-47.1,35.5v72.3
	c0,10.6,8.6,19.2,19.3,19.2c1,0,2-0.1,2.9-0.2c45.7-7.1,85.1-36,105.6-77.5C280.1,221,280.3,215.2,278.1,210.1z"/>
<path class="st8" d="M260.9,44.4c-7.6-7.4-19.8-7.3-27.2,0.3c-0.7,0.7-1.3,1.4-1.8,2.2l-47.4,65.3c11,11,17.2,26,17.2,41.6
	c0,1.4-0.1,2.9-0.2,4.3l75.4,24.5c10.1,3.3,21-2.3,24.3-12.4c0.3-1,0.6-2.1,0.7-3.1c1.1-7,1.6-14.2,1.6-21.3
	C303.5,107.5,288.2,71,260.9,44.4z"/>
<path class="st13" d="M142.6,94.7c10.2,0,20.1,2.6,29,7.6l28.9-39.8c3-4.1,4-9.3,2.8-14.2c-1.1-4.8-4.4-8.9-8.8-11.2
	c-36.2-18.4-79.1-18.5-115.4-0.2c-4.6,2.3-7.9,6.5-9.1,11.5c-1.2,4.9-0.2,10.1,2.8,14.2l32.8,45.2C116.2,99.3,129.2,94.7,142.6,94.7
	z"/>
</svg>
