<svg xmlns="http://www.w3.org/2000/svg" viewBox="0 0 844.35 213.57"><defs><style>.cls-1{fill:#4a46d5;}</style></defs><g id="Layer_2" data-name="Layer 2"><g id="Layer_1-2" data-name="Layer 1"><path class="cls-1" d="M203.1,161.15c0,15.87-12.32,25.77-33,25.77H129.35V98.06H170c17.26,0,27.29,8.13,27.29,22.22,0,9.14-4.19,15.36-11.68,18.53C196.75,142.11,203.1,149.85,203.1,161.15ZM170,111H144.71v23H170c7.23,0,11.42-4.44,11.42-11.67S177.2,111,170,111Zm0,63c10.91,0,17.26-5.21,17.26-14,0-8.38-6.22-13.33-16.75-13.33H144.71V174Z"/><path class="cls-1" d="M223.66,186.92V123.45h14.47v63.47Z"/><path class="cls-1" d="M307.56,98.06H322v88.86H307.56v-9.4c-4.83,7.11-12.31,11.17-21.58,11.17-16.75,0-28.56-13.33-28.56-33.51S269.1,121.67,286,121.67c9.27,0,16.75,4.06,21.58,11.17Zm.63,57.12c0-12.56-7.1-20.81-17.77-20.81s-17.9,8.25-17.9,20.81S279.63,176,290.42,176,308.19,167.75,308.19,155.18Z"/><path class="cls-1" d="M401.17,193.64c0,11.81-10.92,19.93-27.42,19.93s-28.43-8.38-30.59-21.58H352c1.15,8.76,9.65,14.6,21.71,14.6,11.55,0,19.42-5.33,19.42-13,0-7.87-8.12-13.07-20.82-13.07a73,73,0,0,0-19.67,3.05v-7.87c10.92-1.78,20.31-5.21,27.42-9.53a31.27,31.27,0,0,1-10,1.53c-15,0-25.39-8.76-25.39-22.34,0-13.84,11.05-23.23,27.29-23.23,8.76,0,16,2.66,20.82,7.24,3-1.91,2.92-9.53,1.14-13.84h7.62c2,7.36.12,15.23-5.21,18.4A21.4,21.4,0,0,1,399.26,145c0,12.18-8.88,22.21-24,28.43C390.12,174.22,401.17,181.71,401.17,193.64Zm-29.07-32c11.42,0,19.17-6.48,19.17-16.12s-7.49-16.25-19.17-16.25-19.42,6.47-19.42,16.25S360.42,161.66,372.1,161.66Z"/><path class="cls-1" d="M476.82,168c-4.06,12.57-14.72,20.19-28.69,20.19-18.4,0-30.46-13.08-30.46-33s12.19-33,31-33c21.2,0,31.35,16.63,25.64,36.68H425.92c1.27,13.84,9.65,22.34,22.09,22.34,9.52,0,17.13-4.95,20.31-13.2Zm-50.9-16.12h41.89c1.9-13.2-5.59-22.85-19.42-22.85C435.31,129,426.94,137.79,425.92,151.88Z"/><path class="cls-1" d="M588.65,146.42v40.5H581V148.07c0-11.17-5.33-18.65-14.85-18.65-11.55,0-19.42,10.91-19.42,26.9v30.6h-7.62V148.07c0-11.29-5.2-18.65-14.59-18.65-11.3,0-19.55,10.66-19.55,26.9v30.6h-7.62V123.45H505v13c3.17-7.24,10.28-14.22,21.33-14.22,10.15,0,17.13,5.71,19.54,15.1,3.94-9.39,12.06-15.1,22-15.1C581.29,122.18,588.65,131.83,588.65,146.42Z"/><path class="cls-1" d="M702.89,146.42v40.5h-7.62V148.07c0-11.17-5.33-18.65-14.85-18.65-11.55,0-19.42,10.91-19.42,26.9v30.6h-7.62V148.07c0-11.29-5.2-18.65-14.59-18.65-11.3,0-19.55,10.66-19.55,26.9v30.6h-7.62V123.45h7.62v13c3.17-7.24,10.28-14.22,21.32-14.22,10.16,0,17.14,5.71,19.55,15.1,3.94-9.39,12.06-15.1,22-15.1C695.52,122.18,702.89,131.83,702.89,146.42Z"/><path class="cls-1" d="M781.59,168c-4.06,12.57-14.73,20.19-28.69,20.19-18.4,0-30.46-13.08-30.46-33s12.18-33,31-33c21.2,0,31.35,16.63,25.64,36.68H730.69c1.27,13.84,9.64,22.34,22.08,22.34,9.52,0,17.14-4.95,20.31-13.2Zm-50.9-16.12h41.89c1.9-13.2-5.59-22.85-19.43-22.85C740.08,129,731.7,137.79,730.69,151.88Z"/><path class="cls-1" d="M844.35,137.79a22.39,22.39,0,0,1-2.28,9.9h-8.13a16.4,16.4,0,0,0,2.29-8.5c0-5.84-3.55-9.77-9-9.77-8.89,0-15.62,10.66-15.62,26.65v30.85H804V123.45h7.61v12.44c3.69-8.63,10-13.71,17.9-13.71C838.51,122.18,844.35,128.91,844.35,137.79Z"/><polygon class="cls-1" points="43.75 26.9 0 35.26 41.94 48.34 90.06 38.92 43.75 26.9"/><polygon class="cls-1" points="106.44 16.07 127.47 63.16 169.07 41.13 149.23 0.04 106.44 16.07"/><polygon class="cls-1" points="310.79 24.59 267.52 4.17 298.45 42.22 339.03 59.03 310.79 24.59"/><polygon class="cls-1" points="359.83 41.13 401.43 63.16 422.45 16.07 379.66 0.04 359.83 41.13"/><polygon class="cls-1" points="232.07 0 208.23 31.28 232.07 63.2 255.92 31.28 232.07 0"/><rect class="cls-1" x="223.48" y="98.33" width="14.61" height="13.95"/></g></g></svg>